<svg width="96" height="96" viewBox="0 0 96 96" fill="none" xmlns="http://www.w3.org/2000/svg">
<path d="M0 0H96V96H0V0Z" fill="#282828"/>
<path d="M17.99 2.13623e-06C19.26 0.0200021 20.53 0.0499963 21.8 0.0799963C21.77 6.05 21.79 12.02 21.78 17.98C27.79 18.01 33.79 17.94 39.8 18.06C39.8 18.77 39.8 20.2 39.81 20.92C33.8 21.05 27.79 20.97 21.78 21C21.79 26.96 21.77 32.93 21.8 38.89C20.53 38.93 19.27 38.96 18 39C18.01 32.99 18.01 26.99 18.01 20.99C12 20.99 6 21 -4.57764e-07 20.97C-4.57764e-07 20.23 -4.57764e-07 18.75 -4.57764e-07 18.01C6 17.98 12 17.99 18 17.99C18.01 11.99 18.02 6 17.99 2.13623e-06Z" transform="translate(28 29)" fill="#F2F2F2"/>
</svg>
