<svg width="96" height="96" viewBox="0 0 96 96" fill="none" xmlns="http://www.w3.org/2000/svg">
<path d="M0 0H96V96H0V0Z" fill="#282828"/>
<path d="M1.74 0.344689C7.41 -0.315311 13.14 0.184689 18.83 0.134689C18.83 0.854689 18.83 2.27469 18.83 2.99469C13.82 3.09469 8.81001 3.06469 3.81001 3.06469C3.81001 11.0647 3.81001 19.0647 3.81001 27.0547C8.81001 27.0647 13.82 27.0347 18.83 27.1347C18.83 27.8447 18.83 29.2747 18.84 29.9947C13.4 30.0147 7.94997 30.2547 2.51997 29.9747C1.07997 30.0747 -0.090022 28.5647 0.089978 27.2047C-0.100022 20.1747 0.130012 13.1447 1.2207e-05 6.11469C0.0900122 4.10469 -0.389998 1.49469 1.74 0.344689Z" transform="translate(24 28)" fill="#F2F2F2"/>
<path d="M1.65869 0.167147C8.30869 0.00714672 14.9787 -0.0928542 21.6287 0.127146C23.6487 -0.0428542 25.0187 2.05715 24.7987 3.91715C24.8587 14.2871 24.8187 24.6672 24.8187 35.0472C24.9687 36.9272 23.9087 39.3972 21.6487 38.9772C15.2987 39.0872 8.93875 39.1472 2.58875 38.9472C0.518749 39.0672 -0.1813 36.7671 0.0386997 35.0971C0.0486997 24.0871 0.0187388 13.0672 0.0787388 2.04715C0.478739 1.57715 1.26869 0.637147 1.65869 0.167147ZM3.81873 3.04715C3.81873 14.0372 3.82873 25.0371 3.81873 36.0271C9.55873 36.0471 15.2987 36.0372 21.0487 36.0372C21.0487 25.0372 21.0487 14.0371 21.0487 3.03715C15.2987 3.03715 9.55873 3.02715 3.81873 3.04715Z" transform="translate(47.9913 28.0275)" fill="#F2F2F2"/>
<path d="M1.70898e-05 0.754356C1.49002 0.434356 3.39998 -0.775642 4.64998 0.764358C6.74998 2.36436 4.25003 5.49435 2.01003 4.46435C0.080027 4.47435 0.490017 1.99436 1.70898e-05 0.754356Z" transform="translate(57.63 35.5503)" fill="#F2F2F2"/>
<path d="M0.774404 3.31265C2.4844 -0.397346 8.06442 -1.09735 10.8544 1.75265C11.9344 2.99265 12.4944 4.57265 13.2544 6.02265C12.2644 9.04265 10.3144 12.6527 6.54442 12.1027C1.97442 12.8227 -1.6456 7.19265 0.774404 3.31265ZM4.48443 3.96266C3.43443 5.54266 3.47439 8.48265 5.75438 8.87265C8.18439 9.82265 9.25442 6.57266 9.47442 4.71266C7.90442 3.95266 6.14443 2.68266 4.48443 3.96266Z" transform="translate(53.9656 46.012)" fill="#F2F2F2"/>
<path d="M0.65999 0.320067C3.71999 -0.189933 6.85003 0.050066 9.95003 0.100066C9.95003 0.810066 9.95003 2.25007 9.95003 2.97007C6.63003 3.04007 3.31002 3.05007 1.70898e-05 2.92007C0.170017 2.27007 0.49999 0.970067 0.65999 0.320067Z" transform="translate(32.88 64.0346)" fill="#F2F2F2"/>
</svg>
