<svg width="96" height="96" viewBox="0 0 96 96" fill="none" xmlns="http://www.w3.org/2000/svg">
<path d="M0 0H96V96H0V0Z" fill="#282828"/>
<path d="M6.75999 13.78C14.7 9.07 22.65 4.38 30.77 7.62939e-07C30.84 11.2 30.84 22.4 30.77 33.6C22.65 29.22 14.7 24.53 6.75999 19.82C6.81999 23.8 6.82 27.77 6.83 31.75C4.55 31.76 2.27001 31.77 1.2207e-05 31.75C0.0800122 21.77 0.030011 11.79 0.030011 1.81C2.29001 1.82 4.56 1.83 6.83 1.86C6.82 5.84 6.81999 9.81 6.75999 13.78Z" transform="translate(33 31)" fill="#F2F2F2"/>
</svg>
