<svg width="96" height="96" viewBox="0 0 96 96" fill="none" xmlns="http://www.w3.org/2000/svg">
<path d="M0 0H96V96H0V0Z" fill="#282828"/>
<path d="M0.0612906 9.15527e-07C4.64129 2.46 9.12133 5.12 13.6013 7.79C9.13133 10.45 4.71134 13.2 0.0513418 15.51C-0.0186582 10.34 -0.0187094 5.17 0.0612906 9.15527e-07Z" transform="translate(27 27)" fill="#F2F2F2"/>
<path d="M-1.95312e-05 0.0317773C7.26998 0.0217773 14.54 -0.0582196 21.81 0.0817804C21.8 0.80178 21.8 2.22178 21.8 2.94178C14.53 3.07178 7.25998 3.00178 -1.95312e-05 2.99178C-1.95312e-05 2.25178 -1.95312e-05 0.771777 -1.95312e-05 0.0317773Z" transform="translate(48.0013 36.1982)" fill="#F2F2F2"/>
<path d="M-1.95312e-05 0.0326497C14.27 0.0326497 28.54 -0.0673473 42.8 0.0826528C42.8 0.802653 42.8 2.22265 42.8 2.94265C28.53 3.09265 14.26 2.99266 -1.95312e-05 2.99266C-1.95312e-05 2.25266 -1.95312e-05 0.77265 -1.95312e-05 0.0326497Z" transform="translate(27.0013 48.1974)" fill="#F2F2F2"/>
<path d="M-1.95312e-05 0.0326497C14.27 0.0326497 28.54 -0.0673473 42.8 0.0826528C42.8 0.802653 42.8 2.22265 42.8 2.94265C28.54 3.09265 14.27 2.99266 -1.95312e-05 2.99266C-1.95312e-05 2.25266 -1.95312e-05 0.77265 -1.95312e-05 0.0326497Z" transform="translate(27.0013 60.1974)" fill="#F2F2F2"/>
</svg>
