<svg width="96" height="96" viewBox="0 0 96 96" fill="none" xmlns="http://www.w3.org/2000/svg">
<path d="M0 0H96V96H0V0Z" fill="#282828"/>
<path d="M32.4463 0.769804C49.8463 -2.8802 68.7963 6.7698 76.1463 22.9298C81.0363 33.1098 81.2863 45.3898 76.7863 55.7498C72.8263 65.1498 65.0863 72.8898 55.6863 76.8498C45.8063 81.1298 34.1863 81.1298 24.3163 76.8498C14.9063 72.8898 7.16632 65.1598 3.20632 55.7498C-1.28368 45.3998 -1.04368 33.1398 3.83632 22.9698C9.12632 11.5698 20.0963 3.0798 32.4463 0.769804ZM32.4963 3.8198C20.9363 6.1298 10.7963 14.3798 6.11632 25.1798C2.28632 33.7998 1.97632 43.8898 5.23632 52.7398C8.78632 62.6198 16.7963 70.7898 26.5963 74.5498C34.8963 77.8098 44.3763 77.8898 52.7363 74.7998C62.5963 71.2298 70.7463 63.2198 74.5063 53.4298C78.1263 44.1798 77.7863 33.4698 73.5563 24.4798C66.7563 9.2198 48.8263 0.119804 32.4963 3.8198Z" transform="translate(8 8)" fill="#F2F2F2"/>
<path d="M-1.52588e-07 1.67847e-06C2.71 0.0200017 5.41 0.0200018 8.12 0.0900018C8.09 10.04 8.1 19.99 8.12 29.93C5.41 30 2.71 30 -1.52588e-07 30.02C-1.52588e-07 20.01 -1.52588e-07 10.01 -1.52588e-07 1.67847e-06Z" transform="translate(35.1562 33.0498)" fill="#F2F2F2"/>
<path d="M1.2207e-06 0.0355565C2.72 -0.00444353 5.43 -0.00444612 8.15 0.00555388C8.14 9.99555 8.14 19.9956 8.15 29.9956C5.43 29.9956 2.72 29.9956 0.00999954 29.9656C0.0199995 19.9856 0.0300012 10.0056 1.2207e-06 0.0355565Z" transform="translate(52.4663 33.0642)" fill="#F2F2F2"/>
</svg>
