<svg width="96" height="96" viewBox="0 0 96 96" fill="none" xmlns="http://www.w3.org/2000/svg">
<path d="M-1.52588e-07 1.67847e-06C2.71 0.0200017 5.41 0.0200018 8.12 0.0900018C8.09 10.04 8.1 19.99 8.12 29.93C5.41 30 2.71 30 -1.52588e-07 30.02C-1.52588e-07 20.01 -1.52588e-07 10.01 -1.52588e-07 1.67847e-06Z" transform="translate(35 33)" fill="#F2F2F2"/>
<path d="M1.2207e-06 0.0355565C2.72 -0.00444353 5.43 -0.00444612 8.15 0.00555388C8.14 9.99555 8.14 19.9956 8.15 29.9956C5.43 29.9956 2.72 29.9956 0.00999954 29.9656C0.0199995 19.9856 0.0300012 10.0056 1.2207e-06 0.0355565Z" transform="translate(52.3101 33.0145)" fill="#F2F2F2"/>
</svg>
