<svg width="96" height="96" viewBox="0 0 96 96" fill="none" xmlns="http://www.w3.org/2000/svg">
<path d="M0 0H96V96H0V0Z" fill="#282828"/>
<path d="M41.3538 0.436474C53.9938 -1.22353 67.5538 1.81647 77.4038 10.1565C87.6138 17.9965 94.4538 30.1565 95.5038 43.0265C96.7938 55.1965 93.3538 67.8465 85.5938 77.3665C78.9438 85.6165 69.8038 92.1665 59.3338 94.3865C46.9138 97.2265 33.1838 95.5465 22.4538 88.4265C10.4938 80.8765 1.80377 67.9365 0.383766 53.7565C-1.27623 40.7665 2.47375 27.0265 11.1538 17.1365C18.7238 8.11647 29.5538 1.69647 41.3538 0.436474ZM46.0738 3.02647C30.6838 3.18647 16.3338 12.5765 8.75376 25.7465C3.11376 35.2765 1.81378 46.9865 4.02378 57.7365C6.61378 70.0165 15.0238 80.5965 25.6838 86.9965C33.6038 91.5065 42.9238 93.3765 51.9838 92.5065C66.3038 91.6265 79.4438 82.7465 86.6838 70.5265C92.2738 61.5165 93.7338 50.3865 92.1238 40.0265C90.6138 29.9665 85.0638 20.7965 77.4838 14.1265C69.1138 6.31647 57.4338 2.49647 46.0738 3.02647Z" fill="#F2F2F2"/>
<path d="M0.0600085 7.62939e-07C10.83 5.87 21.34 12.2 31.98 18.3C21.34 24.4 10.83 30.73 0.0600085 36.59C-0.0199915 24.4 -0.0199915 12.2 0.0600085 7.62939e-07Z" transform="translate(35.3638 29.5464)" fill="#F2F2F2"/>
</svg>
