<svg width="96" height="96" viewBox="0 0 96 96" fill="none" xmlns="http://www.w3.org/2000/svg">
<path d="M0 0H96V96H0V0Z" fill="#282828"/>
<path d="M33.37 -4.57764e-07C37.19 1.97 40.89 4.17 44.65 6.27C40.9 8.36 37.2 10.56 33.39 12.54C33.34 10.93 33.3 9.33 33.25 7.73C30.03 8.41 26.68 9.34 24.33 11.79C19.7 16.48 15.85 21.88 11.15 26.5C8.21001 29.33 4.1 30.29 0.139998 30.44C0.109998 29.72 0.0399982 28.29 -1.83105e-06 27.57C3.46 26.71 7.18999 25.89 9.75999 23.21C14 18.76 17.78 13.9 21.93 9.37C24.87 6.21 29.17 4.98 33.31 4.41C33.33 2.94 33.34 1.47 33.37 -4.57764e-07Z" transform="translate(26 31)" fill="#F2F2F2"/>
<path d="M0.139998 0.00345348C5.39 -0.106547 10.15 2.42345 13.8 6.04345C13.01 6.91345 12.23 7.79345 11.44 8.66345C8.39 5.45345 4.32 3.62345 -1.83105e-06 2.87345C0.0399982 2.15345 0.109998 0.723454 0.139998 0.00345348Z" transform="translate(26 34.0966)" fill="#F2F2F2"/>
<path d="M11.6 -2.13623e-06C15.41 1.97 19.1 4.17 22.85 6.26C19.09 8.36 15.4 10.57 11.56 12.52C11.54 11.05 11.53 9.58 11.51 8.12C7.31 7.66 3.29 6.2 1.2207e-06 3.51C0.500001 2.81 1.51 1.4 2.01 0.69C4.84 2.7 7.97999 4.23 11.43 4.81C11.49 3.21 11.54 1.6 11.6 -2.13623e-06Z" transform="translate(47.8 52.01)" fill="#F2F2F2"/>
</svg>
