<svg width="96" height="96" viewBox="0 0 96 96" fill="none" xmlns="http://www.w3.org/2000/svg">
<path d="M0 0H96V96H0V0Z" fill="#282828"/>
<path d="M27.1026 -1.83105e-06C30.8826 2.06 34.6126 4.22 38.3826 6.31C34.6226 8.44 30.8926 10.61 27.1026 12.66C27.0526 11.05 27.0226 9.45 26.9926 7.84C20.3026 8.42 12.2126 5.87 6.75257 10.98C3.28257 13.94 3.61258 18.76 4.19258 22.83C3.13258 23.2 2.0826 23.56 1.0326 23.92C-2.0074 16.67 1.90259 7.38 9.64259 5.28C15.3626 4.31 21.2126 5.05 26.9926 4.82C27.0226 3.21 27.0526 1.61 27.1026 -1.83105e-06Z" transform="translate(27 30)" fill="#1DB954"/>
<path d="M34.19 1.22C35.22 0.820001 36.25 0.419999 37.29 -6.10352e-07C37.78 2.63 38.69 5.33 38.04 8.02C37.07 13.7 32.08 18.75 26.21 19.04C21.26 19.26 16.3 19.04 11.36 19.11C11.33 20.71 11.31 22.31 11.29 23.91C7.45002 21.95 3.71998 19.8 -1.70898e-05 17.62C3.70998 15.42 7.44002 13.27 11.29 11.31C11.31 12.91 11.33 14.5 11.36 16.1C18.09 15.5 26.38 18.16 31.69 12.71C34.95 9.79 34.8 5.18 34.19 1.22Z" transform="translate(31.4526 42.72)" fill="#1DB954"/>
</svg>