<svg width="96" height="96" viewBox="0 0 96 96" fill="none" xmlns="http://www.w3.org/2000/svg">
<path d="M0 0H96V96H0V0Z" fill="#282828"/>
<path d="M0.0749878 -1.83105e-06C8.12499 4.49 16.085 9.16 24.065 13.8C24.005 9.81 24.005 5.82 24.005 1.84C26.265 1.85 28.525 1.86 30.805 1.89C30.775 11.85 30.775 21.8 30.805 31.75C28.535 31.8 26.275 31.83 24.025 31.86C24.005 27.86 23.995 23.86 24.065 19.86C16.085 24.51 8.12499 29.17 0.0749878 33.66C-0.0250122 22.44 -0.0250122 11.22 0.0749878 -1.83105e-06Z" transform="translate(33 31)" fill="#F2F2F2"/>
</svg>
