<svg width="96" height="96" viewBox="0 0 96 96" fill="none" xmlns="http://www.w3.org/2000/svg">
<path d="M0 0H96V96H0V0Z" fill="#282828"/>
<path d="M0.0600031 2.44C0.950003 1.63 1.83 0.809999 2.72 -9.15527e-07C7.89 5.18 11.55 12.15 11.47 19.6C11.81 27.37 8.26 34.88 2.72 40.2C1.8 39.43 0.899998 38.66 -2.13623e-06 37.87C4.96 33.32 7.9 26.74 7.98 20.01C7.78 13.41 4.95 6.92 0.0600031 2.44Z" transform="translate(60.7574 28)" fill="#F2F2F2"/>
<path d="M8.4275 8.99C14.0275 6.32 19.0875 2.59 24.7375 8.39233e-07C24.8075 12.11 24.8075 24.22 24.7475 36.33C19.6675 34.16 15.0975 31.02 10.2975 28.32C7.2775 26.25 3.4175 27.4 0.00750168 27.13C-0.00249832 21.13 -0.00249832 15.13 0.00750168 9.13C2.8075 9.1 5.6275 9.3 8.4275 8.99ZM10.3975 11.87C8.2275 12.34 5.9775 12.11 3.7775 12.15C3.7875 16.14 3.7875 20.12 3.7775 24.1C6.3475 24.24 9.1975 23.6 11.5075 25.05C14.7075 26.89 17.8875 28.79 21.0475 30.71C20.9575 22.42 21.0175 14.12 21.0075 5.83C17.4575 7.81 14.0775 10.13 10.3975 11.87Z" transform="translate(24 29.91)" fill="#F2F2F2"/>
<path d="M1.7 -1.2207e-06C3.87 0.0999988 4.65 2.72 5.71 4.27C9.3 10.67 7.5 18.94 2.37 23.95C1.56 23.19 0.769997 22.4 -3.05176e-06 21.6C2.37 18.52 4.35 14.85 3.85 10.82C4.06 7.37 1.42 4.87 0.359998 1.86C0.689998 1.4 1.37 0.459999 1.7 -1.2207e-06Z" transform="translate(54.2175 36.32)" fill="#F2F2F2"/>
</svg>
